#!OML:ASF X:\für Bonn\!DataBase\2005_08_12_Daniel\c3d\Daniel.ASF
:FULLY-SPECIFIED
:DEGREES
321
root 0.444496 17.3754 -15.5324 172.805 170.483 -180.382
lowerback 32.3112 -1.83848 5.2635
upperback 10.3055 -0.863498 -3.48753
thorax -5.46628 -0.218415 -6.19662
lowerneck -3.76496 -1.52553 -3.99109
upperneck 8.28024 -1.96359 2.50344
head 3.4191 -0.997042 1.44393
rclavicle 4.29375e-014 -2.06736e-014
rhumerus -19.1079 -3.63968 -85.793
rradius 16.8908
rwrist 31.3556
rhand -17.4304 18.3916
rfingers 7.12502
rthumb 8.82001 -11.404
lclavicle 4.29375e-014 -2.06736e-014
lhumerus -21.7191 14.0851 82.217
lradius 38.7967
lwrist -4.76383
lhand -14.9212 -9.36762
lfingers 7.12502
lthumb 11.2408 20.3112
rfemur -1.84065 4.28904 23.0483
rtibia 31.6721
rfoot -25.7352 -7.2454
rtoes -9.26096
lfemur -12.0267 -10.1317 -12.5257
ltibia 47.7869
lfoot -20.1785 1.43623
ltoes -15.3636
322
root 0.423483 17.3729 -15.4644 172.579 170.696 -180.406
lowerback 31.6936 -1.7955 5.18211
upperback 10.2733 -0.861861 -3.39972
thorax -5.26035 -0.220008 -6.06572
lowerneck -3.93628 -1.40788 -4.02121
upperneck 8.40425 -1.79665 2.47309
head 3.48892 -0.916469 1.44694
rclavicle 1.27222e-014 -4.33351e-014
rhumerus -19.5094 -5.00052 -85.6815
rradius 16.7845
rwrist 31.9732
rhand -17.3919 18.5814
rfingers 7.12502
rthumb 8.85714 -11.2127
lclavicle 1.27222e-014 -4.33351e-014
lhumerus -21.7423 14.4941 82.4368
lradius 38.8268
lwrist -4.94054
lhand -15.0003 -9.36289
lfingers 7.12502
lthumb 11.1645 20.3201
rfemur -1.10786 4.70632 23.3487
rtibia 31.2703
rfoot -25.9301 -7.4727
rtoes -9.09718
lfemur -12.458 -9.93229 -12.4993
ltibia 49.1553
lfoot -19.4944 1.69439
ltoes -14.9963
323
root 0.402122 17.3715 -15.3965 172.361 170.902 -180.433
lowerback 30.8648 -1.74078 5.08009
upperback 10.4878 -0.882532 -3.09303
thorax -5.12151 -0.253302 -6.12049
lowerneck -4.15246 -1.288 -4.00459
upperneck 8.56814 -1.62544 2.40734
head 3.58007 -0.833779 1.43051
rclavicle -9.14409e-015 2.78299e-015
rhumerus -19.9596 -6.16738 -85.5987
rradius 16.709
rwrist 32.3723
rhand -17.4001 18.7036
rfingers 7.12502
rthumb 8.84928 -11.0909
lclavicle -9.14409e-015 2.78299e-015
lhumerus -21.8384 14.864 82.6431
lradius 38.9089
lwrist -5.06034
lhand -15.0518 -9.20142
lfingers 7.12502
lthumb 11.1148 20.4842
rfemur -0.400331 5.09129 23.658
rtibia 30.9064
rfoot -26.1273 -7.68759
rtoes -9.07842
lfemur -12.9294 -9.70088 -12.4605
ltibia 50.5476
lfoot -18.7446 1.92629
ltoes -14.1026
324
root 0.382023 17.3679 -15.3293 172.146 171.127 -180.452
lowerback 30.3741 -1.71213 5.01232
upperback 10.4051 -0.888459 -3.04425
thorax -4.99301 -0.259312 -6.01717
lowerneck -4.38132 -1.16486 -3.92393
upperneck 8.73252 -1.45265 2.3249
head 3.67309 -0.748989 1.39745
rclavicle 4.96962e-015 -1.03368e-014
rhumerus -20.3648 -7.52004 -85.5039
rradius 16.587
rwrist 32.9412
rhand -17.3791 18.8052
rfingers 7.12502
rthumb 8.86954 -10.9884
lclavicle 4.96962e-015 -1.03368e-014
lhumerus -21.9415 15.1474 82.8255
lradius 39.0257
lwrist -5.0631
lhand -15.0315 -9.00115
lfingers 7.12502
lthumb 11.1343 20.6835
rfemur 0.282374 5.51732 23.9652
rtibia 30.5804
rfoot -26.3233 -7.92367
rtoes -8.95114
lfemur -13.4212 -9.46058 -12.4486
ltibia 51.9549
lfoot -18.0278 2.19544
ltoes -12.9667
325
root 0.363491 17.3595 -15.2649 171.971 171.323 -180.44
lowerback 29.9015 -1.68468 4.94312
upperback 10.3061 -0.894798 -2.99803
thorax -4.88975 -0.266584 -5.9167
lowerneck -4.54931 -1.05837 -3.85004
upperneck 8.84263 -1.3052 2.26137
head 3.73715 -0.676279 1.37068
rclavicle -3.57812e-015 7.55382e-015
rhumerus -20.8049 -8.75814 -85.3984
rradius 16.5144
rwrist 33.3323
rhand -17.3408 18.7946
rfingers 7.12502
rthumb 8.90646 -10.9974
lclavicle -3.57812e-015 7.55382e-015
lhumerus -22.037 15.4001 83.0506
lradius 39.0924
lwrist -5.06044
lhand -15.082 -8.85561
lfingers 7.12502
lthumb 11.0857 20.8316
rfemur 0.883628 5.8864 24.2247
rtibia 30.3043
rfoot -26.5236 -8.14493
rtoes -9.00471
lfemur -13.9905 -9.21128 -12.4758
ltibia 53.3623
lfoot -17.3151 2.45823
ltoes -12.1606
326
root 0.345558 17.3502 -15.2002 171.781 171.535 -180.443
lowerback 29.4632 -1.65628 4.93878
upperback 10.2093 -0.881726 -2.97588
thorax -4.79554 -0.263054 -5.88877
lowerneck -4.54376 -0.962506 -3.73809
upperneck 8.86062 -1.18208 2.21251
head 3.73561 -0.613995 1.34004
rclavicle -1.2921e-014 1.86858e-014
rhumerus -21.2387 -10.0333 -85.2844
rradius 16.402
rwrist 33.7058
rhand -17.2511 18.8277
rfingers 7.12502
rthumb 8.99302 -10.9606
lclavicle -1.2921e-014 1.86858e-014
lhumerus -22.1417 15.654 83.238
lradius 39.1465
lwrist -5.15178
lhand -15.0877 -8.73649
lfingers 7.12502
lthumb 11.0802 20.951
rfemur 1.50311 6.28703 24.5077
rtibia 30.0316
rfoot -26.7431 -8.38571
rtoes -8.86348
lfemur -14.5444 -8.95722 -12.5038
ltibia 54.7437
lfoot -16.645 2.70955
ltoes -11.6437
